# xmcd CD database file
#
# Track frame offsets:
#	150
#	22578
#	39389
#	55599
#	75600
#	94877
#	114118
#	129619
#	153409
#	167519
#
# Disc length: 2518 seconds
#
# Revision: 0
# Processed by: cddbd v1.5.2PL0 Copyright (c) Steve Scherf et al.
# Submitted via: CDex 1.51
#
DISCID=6509d40a
DTITLE=Jessy J - Second Chances
DYEAR=2013
DGENRE=Jazz
TTITLE0=Listen 2 the Groove
TTITLE1=Second Chances
TTITLE2=Feel Like Makin' Love
TTITLE3=Magdelenha
TTITLE4=Tango For Two
TTITLE5=Dos
TTITLE6=La Luna Feliz
TTITLE7=Double Trouble
TTITLE8=Mambo Gumbo
TTITLE9=Twice
EXTD=YEAR: 2013
EXTT0=
EXTT1=
EXTT2=
EXTT3=
EXTT4=
EXTT5=
EXTT6=
EXTT7=
EXTT8=
EXTT9=
PLAYORDER=
